<svg width="63" height="76" viewBox="0 0 63 76" fill="none" xmlns="http://www.w3.org/2000/svg">
<path opacity="0.15" fill-rule="evenodd" clip-rule="evenodd" d="M62.9205 25.1601C62.9192 25.098 62.8265 24.9942 62.7768 24.9942C61.7882 24.9686 60.805 24.9484 59.8218 24.947C54.8533 24.9389 49.8876 24.9376 44.9232 24.9389C44.2395 24.9389 43.5544 24.9834 42.8761 24.9875C41.9211 25.001 40.9715 24.9942 40.0178 24.9942C37.905 24.9875 35.7975 24.9834 33.6847 24.978C33.5396 24.978 33.4967 25.0171 33.4967 25.1655C33.5128 26.0473 33.5249 26.9292 33.5249 27.8137C33.5208 28.7482 33.8123 29.595 34.3791 30.3366C35.4846 31.7767 37.0346 31.983 38.6894 31.7754C39.5276 31.6634 40.1092 31.1308 40.4987 30.3973C40.6008 30.2018 40.6411 29.9739 40.7176 29.746C40.6129 29.7258 40.5779 29.7123 40.5403 29.7123C39.7653 29.719 38.9863 29.7406 38.2099 29.7312C37.8808 29.7258 37.5356 29.7002 37.2133 29.6152C36.5511 29.4467 36.2287 29.0219 36.273 28.4151H59.4806C59.4806 28.7576 59.5169 29.1163 59.4685 29.4642C59.4215 29.8134 59.3476 30.1815 59.1797 30.4863C58.9272 30.9569 58.4343 31.0499 57.9319 31.0499C55.7909 31.0445 53.6498 31.0445 51.5115 31.0445H51.2025C51.1985 31.0674 51.1945 31.0904 51.1931 31.1133C51.2308 31.1429 51.2697 31.1767 51.3154 31.1982C51.9682 31.5502 52.6236 31.9008 53.2764 32.2513C54.4974 32.9013 55.713 33.5593 56.938 34.2052C57.1126 34.3023 57.1905 34.4155 57.1797 34.6124C57.1596 35.1396 57.1435 35.6642 57.126 36.186C57.1085 36.6323 56.8842 36.9559 56.5202 37.1852C55.8352 37.6207 55.0561 37.7299 54.2704 37.742C52.6801 37.765 51.0897 37.765 49.498 37.742C48.3362 37.7259 47.2294 37.9106 46.1589 38.3825C45.3355 38.7534 44.6102 39.2482 44.0205 39.9103C43.623 40.3633 43.3154 40.9014 42.9903 41.4151C42.4517 42.2686 42.3174 43.2368 42.2583 44.2104C42.1938 45.2082 42.3899 46.1736 42.7875 47.0932C43.3865 48.4659 44.3442 49.519 45.6444 50.2836C46.4168 50.7353 47.2415 51.0104 48.1146 51.125C49.134 51.2666 50.1361 51.1668 51.1139 50.8432C52.1347 50.5074 53.0602 49.991 53.7761 49.19C54.1025 48.8246 54.4477 48.9756 54.8184 48.9446C54.8184 49.8076 54.8224 50.6247 54.8157 51.4419C54.8157 51.6225 54.7848 51.8059 54.7405 51.9785C54.5095 52.7943 53.8271 53.0599 53.1099 53.2366C52.1925 53.4591 51.2509 53.4631 50.3093 53.4631C43.8164 53.4591 37.3221 53.4631 30.8291 53.4564C30.1092 53.4537 29.3959 53.4092 28.6773 53.3445C27.1971 53.2015 25.9036 52.5813 24.7445 51.6927C22.8251 50.2067 21.9171 48.2043 21.8392 45.8096C21.7895 44.3546 22.0662 42.9509 22.5228 41.5796C22.7686 40.8474 23.0735 40.1341 23.3784 39.4289C23.5463 39.0419 23.7666 38.6819 23.9627 38.3084C23.9466 38.2908 23.9278 38.2706 23.9117 38.2531C23.6014 38.4783 23.2831 38.694 22.9876 38.934C22.2408 39.5327 21.6014 40.2191 21.0467 41.0038C19.9842 42.5046 19.3798 44.1605 19.2723 45.9795C19.2199 46.8128 19.2589 47.665 19.3825 48.4902C19.6095 49.9667 20.1978 51.3111 21.0695 52.5408C21.8204 53.5926 22.7364 54.4731 23.815 55.1742C25.4537 56.2381 27.2764 56.7546 29.22 56.8382C30.003 56.8719 30.7848 56.8422 31.5705 56.8422C36.3442 56.8557 41.1152 56.8719 45.8876 56.8759C47.6727 56.8773 49.4551 56.8503 51.2388 56.8449C52.8654 56.8409 54.4343 56.6049 55.8795 55.781C57.3664 54.9275 58.1468 53.6263 58.214 51.9596C58.2932 49.9101 58.2529 47.8551 58.2731 45.8028C58.2798 45.5952 58.214 45.5412 58.0138 45.5412C56.1764 45.548 54.3362 45.548 52.4974 45.5412C52.316 45.5412 52.2072 45.6087 52.1079 45.7637C51.9144 46.0644 51.7277 46.3786 51.4846 46.6415C50.0998 48.1558 47.8432 48.1248 46.5041 46.624C45.5021 45.4981 45.4 43.7816 46.3066 42.5302C46.9151 41.6969 47.7761 41.26 48.7915 41.198C49.8916 41.1292 51.0024 41.1535 52.1079 41.136C52.316 41.1306 52.4101 41.2075 52.4047 41.4407C52.3886 42.1702 52.398 42.8943 52.398 43.6251V44.6338C52.4584 44.6162 52.488 44.6135 52.5054 44.5987C53.7909 43.5051 55.0763 42.4089 56.3671 41.318C56.6304 41.0901 56.8869 40.8245 57.1958 40.6735C57.7492 40.4052 58.3053 40.1638 58.7956 39.7862C59.6713 39.1012 60.2798 38.2315 60.4517 37.1461C60.5847 36.3087 60.5511 35.4471 60.578 34.5935C60.5807 34.4317 60.6237 34.336 60.7768 34.2551C61.3611 33.9476 61.7949 33.4838 62.1307 32.9188C62.8144 31.7686 62.942 30.4795 62.9904 29.1864C63.0226 28.1805 62.9621 27.1759 62.942 26.1687C62.9366 25.8343 62.942 25.4958 62.9205 25.1601ZM42.5364 71.4769C41.9875 71.5992 41.4438 71.7484 40.8909 71.8371C39.4333 72.0751 37.9743 72.3237 36.5087 72.4958C35.2773 72.6396 34.0379 72.727 32.8025 72.7539C31.6001 72.7781 30.3885 72.7458 29.1901 72.6396C27.8118 72.5146 26.4309 72.3197 25.0672 72.0804C23.6241 71.8277 22.1982 71.4406 20.8331 70.8774C19.7551 70.4391 18.6718 70.0036 17.6255 69.4928C16.771 69.0761 15.9496 68.5787 15.1467 68.0639C13.5555 67.0328 12.1177 65.8015 10.7976 64.4412C9.57674 63.1857 8.48417 61.8213 7.53181 60.3507C6.8096 59.2323 6.17337 58.0601 5.61782 56.8368C5.11254 55.7386 4.68795 54.6081 4.37975 53.44C4.09669 52.3632 3.8414 51.2758 3.6668 50.1802C3.50411 49.1559 3.43665 48.1155 3.38771 47.0817C3.35596 46.3706 3.4102 45.6542 3.43136 44.9364C3.46178 43.6943 3.64564 42.4616 3.90357 41.2451C4.06627 40.4816 4.26732 39.7275 4.50806 38.9841C4.82683 38.0001 5.15752 37.0161 5.56227 36.0644C5.90618 35.2512 6.34003 34.4755 6.76727 33.7013C7.1125 33.0654 7.48022 32.439 7.89026 31.8449C8.32676 31.2158 8.81485 30.623 9.295 30.0275C9.6151 29.6376 9.96562 29.2747 10.3399 28.854C10.3399 28.9924 10.3307 29.0556 10.3399 29.1161C10.3519 29.1873 10.3876 29.2572 10.3915 29.3258C10.4484 30.3635 10.7222 31.3421 11.16 32.275C11.1865 32.3409 11.164 32.4605 11.1177 32.5251C10.8558 32.9135 10.5648 33.2859 10.3042 33.6838C9.50928 34.8896 8.83204 36.1652 8.26856 37.5041C7.64821 38.9827 7.19187 40.5031 6.88764 42.0731C6.77918 42.6283 6.72362 43.1969 6.66674 43.7615C6.60061 44.435 6.5305 45.1084 6.5186 45.7832C6.50008 46.5051 6.53579 47.2283 6.56754 47.9501C6.59135 48.4179 6.60987 48.8938 6.69849 49.3535C6.92335 50.5042 7.1707 51.6548 7.44186 52.8015C7.5662 53.323 7.73947 53.8392 7.95111 54.3325C8.32412 55.217 8.72887 56.0908 9.15743 56.9498C9.81747 58.2886 10.6495 59.5146 11.6018 60.6531C12.205 61.3723 12.8624 62.0457 13.5118 62.7192C14.5991 63.8322 15.8398 64.7503 17.144 65.5676C18.3861 66.35 19.6916 67.0328 21.0805 67.4979C22.1426 67.8582 23.2127 68.1849 24.2987 68.4537C25.4468 68.7387 26.6293 68.8529 27.8118 68.9269C29.3263 69.025 30.8303 68.9457 32.3276 68.7306C33.772 68.5236 35.1847 68.162 36.5656 67.674C36.8606 67.5705 37.1516 67.4522 37.4479 67.342C37.4399 67.3205 37.4373 67.2923 37.4333 67.2694C37.2958 67.2694 37.1555 67.2627 37.018 67.2721C35.3222 67.3689 33.6292 67.4106 31.9321 67.2748C30.9401 67.1942 29.948 67.1337 28.9652 66.9818C27.6385 66.7815 26.3211 66.4978 25.0301 66.0946C23.1016 65.4964 21.2776 64.6536 19.5871 63.554C18.2908 62.7192 17.1216 61.7178 16.0449 60.6074C15.1322 59.6678 14.3068 58.661 13.5383 57.6017C12.6415 56.3623 11.9113 55.0275 11.3267 53.6201C10.8122 52.374 10.4616 51.0768 10.2024 49.7514C9.98017 48.6424 9.87303 47.5159 9.87567 46.3935C9.87964 45.4068 9.99075 44.4148 10.123 43.4402C10.2288 42.6579 10.4101 41.8809 10.6124 41.1187C11.0331 39.4868 11.701 37.9544 12.5515 36.5026C12.8333 36.0201 13.1534 35.555 13.4563 35.0724C14.365 35.7862 15.3425 36.2445 16.4232 36.5349C14.1335 39.5258 12.9325 42.8582 12.9246 46.6207C12.9153 50.3872 14.074 53.7572 16.3808 56.7091C20.4681 61.9328 26.8819 63.6198 31.9877 62.5471C31.9123 62.5216 31.8673 62.5028 31.8157 62.492C31.4427 62.41 31.0591 62.3589 30.694 62.2474C29.62 61.9207 28.5433 61.6035 27.4864 61.2338C26.0539 60.7338 24.71 60.0334 23.4495 59.2027C22.0818 58.3007 20.853 57.2213 19.812 55.9389C19.0977 55.0638 18.4535 54.1349 17.9522 53.116C17.3742 51.9519 16.8808 50.7407 16.6242 49.4543C16.4774 48.7136 16.3597 47.9636 16.3041 47.2135C16.2618 46.6381 16.3292 46.0628 16.365 45.4875C16.4271 44.4968 16.6427 43.5316 16.9536 42.5987C17.3226 41.4911 17.8411 40.4574 18.4932 39.4841C19.5249 37.9558 20.8239 36.7096 22.3728 35.7364C23.3952 35.0952 24.292 34.3371 24.9838 33.337C25.4071 32.7294 25.7523 32.0882 25.9944 31.3878C26.046 31.24 26.083 31.0813 26.1267 30.9308C26.091 30.9106 26.0566 30.8905 26.0235 30.8622C25.9997 30.9133 25.9904 30.9752 25.9574 31.0114C24.5725 32.4874 22.923 33.4808 20.9151 33.7994C19.2736 34.0655 17.7221 33.8142 16.2922 32.927C15.1772 32.2387 14.3108 31.3152 13.9311 30.0409C13.5648 28.8217 13.6653 27.6011 14.2843 26.476C15.1891 24.8307 16.6136 23.965 18.4588 23.965C26.2642 23.9367 34.0643 23.9515 41.8658 23.9515H42.2388C42.2189 23.8951 42.215 23.8682 42.2044 23.8467C41.5483 22.7122 40.8922 21.5749 40.2335 20.4391C39.4359 19.0464 38.6264 17.6565 37.842 16.2585C37.727 16.0461 37.6026 15.9964 37.3817 15.9964C31.0856 16.0004 24.7894 16.0004 18.4932 16.0004C18.1268 16.0004 17.7538 16.0138 17.3887 15.9964C17.2975 15.991 17.1679 15.9023 17.1348 15.8257C16.8993 15.1858 16.6851 14.5392 16.4589 13.8953C16.197 13.1506 15.9338 12.4059 15.6745 11.6545C15.5475 11.3023 15.4298 10.9367 15.3002 10.5589C15.7658 10.5227 16.193 10.4971 16.6189 10.4581C17.7961 10.3613 18.9363 10.0723 20.0421 9.67982C20.7895 9.41769 21.5156 9.07626 22.2193 8.70659C23.3013 8.13261 24.2868 7.41613 25.046 6.43619C25.3039 6.09744 25.5328 5.73987 25.7523 5.41726C28.5155 8.57217 32.0035 10.0925 36.1886 10.1086C35.6582 11.4515 35.1265 12.8078 34.5855 14.1776C34.6397 14.1911 34.6807 14.2112 34.7217 14.2112C35.809 14.2112 36.8989 14.2153 37.9915 14.2032C38.0709 14.2032 38.1886 14.0929 38.2203 14.0056C38.3486 13.6668 38.4465 13.3066 38.5695 12.9624C39.0298 11.6518 39.4981 10.3466 39.961 9.03862C40.1872 8.39608 40.4161 7.75488 40.6383 7.11368C40.7454 6.80719 40.842 6.49668 40.9584 6.15121C40.6118 6.25875 40.3142 6.35419 40.014 6.45232C39.051 6.77493 38.0576 6.96716 37.0458 6.94565C36.2243 6.92683 35.4003 6.83005 34.5961 6.66471C33.3315 6.40258 32.1808 5.838 31.0882 5.14707C29.3832 4.06765 27.9454 2.67771 26.6028 1.17889C26.2497 0.785032 25.9031 0.384451 25.5645 0C25.1836 0.561889 24.8502 1.11975 24.4547 1.62652C23.8767 2.36854 23.2855 3.10383 22.6453 3.78805C21.9601 4.52065 21.1797 5.14169 20.3278 5.68476C19.2115 6.39451 18.021 6.88785 16.7194 7.11368C14.8571 7.43495 13.0449 7.20509 11.2778 6.5612C10.9233 6.42812 10.5688 6.29101 10.2103 6.15793C10.1984 6.20632 10.1865 6.22783 10.1892 6.24127C10.5145 7.1782 10.8413 8.12454 11.1733 9.06013C11.5172 10.0522 11.8743 11.0361 12.2209 12.0201C12.5317 12.9127 12.8293 13.8106 13.1362 14.7019C13.4695 15.6522 13.7962 16.5972 14.1335 17.5409C14.3385 18.1149 14.5793 18.6781 14.7631 19.2561C14.8372 19.4927 14.988 19.4255 15.115 19.4255C16.2208 19.4148 17.3279 19.3798 18.435 19.3785C22.8741 19.3771 27.3184 19.3798 31.7549 19.3852C32.9017 19.3852 34.0432 19.3785 35.1847 19.3798C35.2879 19.3798 35.44 19.4201 35.4796 19.4927C35.6794 19.8315 35.85 20.1823 36.0511 20.5735H35.7204C29.6835 20.5735 23.6518 20.5789 17.6163 20.5654C16.5277 20.5654 15.5356 20.8544 14.5687 21.3115C13.5449 21.7994 12.5939 22.3949 11.7209 23.1195C10.7936 23.8924 9.85186 24.6478 8.95241 25.4477C8.39819 25.941 7.88497 26.4948 7.39557 27.0513C6.77256 27.7571 6.1403 28.4587 5.60856 29.2263C4.84006 30.3366 4.09669 31.4739 3.45252 32.6595C2.85068 33.7617 2.35466 34.9312 1.87716 36.098C1.53457 36.9368 1.24886 37.8039 1.024 38.6749C0.740938 39.7812 0.509462 40.9023 0.322957 42.0342C0.169521 42.9644 0.0808989 43.9107 0.0306354 44.8544C-0.0209509 45.7295 0.00418087 46.6086 0.022699 47.485C0.0398944 48.1773 0.0703171 48.8763 0.145712 49.5632C0.308407 51.0338 0.588825 52.4842 0.96977 53.9158C1.32426 55.2614 1.77002 56.5747 2.34805 57.8383C2.84539 58.9298 3.40755 59.9944 3.98294 61.0483C4.6734 62.3294 5.51201 63.5204 6.44056 64.6294C7.21038 65.5488 8.03841 66.4253 8.88495 67.2748C9.47357 67.8757 10.1336 68.3999 10.7738 68.939C11.8571 69.8517 13.0277 70.6435 14.2539 71.3411C15.1679 71.8573 16.1097 72.3358 17.0634 72.7714C17.8742 73.141 18.7088 73.4637 19.5527 73.754C20.9905 74.2487 22.4601 74.6358 23.968 74.8469C24.9984 74.9894 26.0314 75.1386 27.0658 75.2004C28.0711 75.2609 29.0843 75.269 30.0869 75.2085C31.2099 75.1386 32.3329 74.9799 33.4506 74.8321C35.0233 74.6224 36.5444 74.1922 38.0378 73.6747C39.4386 73.1908 40.801 72.6087 42.1105 71.9124C42.3697 71.7713 42.6184 71.6288 42.875 71.4823C42.8671 71.4648 42.8552 71.4419 42.8459 71.4218C42.7441 71.4406 42.6382 71.454 42.5364 71.4769Z" fill="#000"/>
</svg>
