<!-- Generated by IcoMoon.io -->
<svg version="1.1" xmlns="http://www.w3.org/2000/svg" width="60" height="60" viewBox="0 0 60 60">
<title>music</title>
<path d="M50.528 6.634c-10.054 0.199-21.701 1.941-31.757 5.228-0.006-0.066 0.037 29.865 0.037 29.865-1.815-0.411-3.866-0.172-6.021 0.81-3.998 1.817-6.178 5.49-4.869 8.203 1.309 2.717 5.61 3.446 9.607 1.626 3.654-1.959 4.83-3.731 4.95-6.294l0.090-25.935c7.924-2.331 16.303-3.713 24.231-4.14v23.186c-1.836-0.45-4.268-0.223-6.471 0.776-3.998 1.821-6.178 5.494-4.869 8.207 1.309 2.717 5.61 3.442 9.609 1.626 2.842-1.292 5.117-3.523 5.518-5.679 0.002-0.002-0.096-37.528-0.056-37.477z"></path>
</svg>
